<?xml version="1.0" encoding="UTF-8" standalone="no"?>
<svg
   xmlns:dc="http://purl.org/dc/elements/1.1/"
   xmlns:cc="http://creativecommons.org/ns#"
   xmlns:rdf="http://www.w3.org/1999/02/22-rdf-syntax-ns#"
   xmlns:svg="http://www.w3.org/2000/svg"
   xmlns="http://www.w3.org/2000/svg"
   xmlns:sodipodi="http://sodipodi.sourceforge.net/DTD/sodipodi-0.dtd"
   xmlns:inkscape="http://www.inkscape.org/namespaces/inkscape"
   id="Layer_1"
   version="1.1"
   viewBox="0 0 22.7 22.700001"
   xml:space="preserve"
   sodipodi:docname="UPwork_logo.svg"
   width="22.700001"
   height="22.700001"
   inkscape:version="0.92.3 (2405546, 2018-03-11)"><metadata
     id="metadata3737"><rdf:RDF><cc:Work
         rdf:about=""><dc:format>image/svg+xml</dc:format><dc:type
           rdf:resource="http://purl.org/dc/dcmitype/StillImage" /><dc:title></dc:title></cc:Work></rdf:RDF></metadata><defs
     id="defs3735" /><sodipodi:namedview
     pagecolor="#ffffff"
     bordercolor="#666666"
     borderopacity="1"
     objecttolerance="10"
     gridtolerance="10"
     guidetolerance="10"
     inkscape:pageopacity="0"
     inkscape:pageshadow="2"
     inkscape:window-width="1920"
     inkscape:window-height="1001"
     id="namedview3733"
     showgrid="false"
     inkscape:zoom="14.250441"
     inkscape:cx="43.086387"
     inkscape:cy="28.35"
     inkscape:window-x="-9"
     inkscape:window-y="-9"
     inkscape:window-maximized="1"
     inkscape:current-layer="Layer_1" /><g
     id="g3730"
     transform="translate(0,-34.000079)"><path
       d="m 38.8,24.6 c -2.8,0 -3.7,2.7 -3.9,4.3 V 29 l -0.4,1.5 c 1.2,1 2.7,1.7 4.2,1.7 2,0 3.8,-1.7 3.9,-3.9 0,-2 -1.7,-3.7 -3.8,-3.7 z"
       id="path3726"
       style="fill:#ffffff"
       inkscape:connector-curvature="0" /></g><path
     style="fill:#ffffff;stroke-width:0.03180385"
     d="M 10.209207,22.394041 C 8.9701582,22.268611 7.7110756,21.92508 6.5680837,21.400564 4.8441928,20.609473 3.2731801,19.315462 2.1536967,17.764521 0.2998444,15.196187 -0.36800261,11.975177 0.31054538,8.8750529 1.1374731,5.0970172 3.9385603,1.9748516 7.6400188,0.70543061 8.8522124,0.28970745 9.9830265,0.10327441 11.295097,0.10283393 c 1.061923,-3.5742e-4 1.772218,0.0818146 2.73229,0.31617375 2.823775,0.68920222 5.301491,2.46703582 6.848551,4.91403682 0.29286,0.4632196 0.789919,1.4546338 0.981929,1.9585078 0.995409,2.6121934 0.979008,5.4811607 -0.04608,8.0600907 -1.545918,3.889261 -5.125232,6.589627 -9.31902,7.030613 -0.490411,0.05159 -1.822675,0.05846 -2.283564,0.01158 z m 2.503415,-4.822091 c 0.02043,-0.08059 0.754258,-3.501466 0.754258,-3.515963 0,-0.0047 0.147317,0.06604 0.327366,0.157167 0.360059,0.182259 0.77309,0.330471 1.141782,0.409773 0.333974,0.07181 1.086905,0.09816 1.397174,0.04885 1.517062,-0.241003 2.686564,-1.432025 2.966721,-3.021273 0.100368,-0.569327 -0.0032,-1.272065 -0.271229,-1.8390614 C 18.538314,8.7737654 17.52471,8.0187432 16.408257,7.8595046 16.048246,7.8081626 15.407852,7.8378416 15.090113,7.9206306 13.958426,8.21543 13.098525,9.0516457 12.684423,10.260017 L 12.58424,10.552361 12.35654,10.16502 C 11.872785,9.342078 11.351457,8.2190783 11.037311,7.3232203 l -0.149921,-0.4275477 -0.880904,-0.00831 -0.8809056,-0.00831 -0.0095,2.4311906 -0.0095,2.4311948 -0.071713,0.187459 C 8.605576,13.051442 7.198996,13.370453 6.357617,12.536125 6.1264217,12.306858 5.9495218,11.969414 5.8995212,11.662267 5.8784032,11.53236 5.8659144,10.612199 5.8657688,9.1682311 L 5.8655285,6.8800535 H 4.9872348 4.108941 l 9.47e-5,2.3198492 c 6.37e-5,1.4969313 0.012562,2.4209583 0.035318,2.6048823 0.097325,0.787568 0.4570781,1.496411 1.0378204,2.044908 1.0240045,0.967141 2.5176523,1.178349 3.7813068,0.534693 0.5980648,-0.30462 1.1208901,-0.818556 1.4231971,-1.398973 0.30273,-0.58123 0.397002,-1.002641 0.397884,-1.778596 l 5.91e-4,-0.510492 0.20226,0.382073 c 0.207394,0.391774 0.556381,0.95845 0.843963,1.370404 0.08919,0.127777 0.156327,0.248909 0.149209,0.269201 -0.0248,0.07055 -1.068836,4.843971 -1.068836,4.886824 0,0.03538 0.160424,0.04315 0.890801,0.04315 h 0.890801 z"
     id="path3739"
     inkscape:connector-curvature="0" /></svg>